<svg width="80" height="80" viewBox="0 0 80 80" fill="none" xmlns="http://www.w3.org/2000/svg">
<path d="M39.9999 73.3333C47.3967 73.3276 54.5814 70.8617 60.4228 66.324C66.2642 61.7863 70.4303 55.4346 72.2653 48.2691C74.1002 41.1035 73.4996 33.5312 70.5582 26.7444C67.6168 19.9577 62.5015 14.3421 56.0179 10.7819C49.5343 7.22165 42.0507 5.91908 34.7455 7.07926C27.4403 8.23945 20.7285 11.7965 15.667 17.1903C10.6054 22.584 7.48167 29.5081 6.78761 36.8723C6.09355 44.2364 7.86861 51.6222 11.8333 57.8667C12.2666 58.5 12.1999 59.3333 11.6999 59.9L4.83327 67.8C4.41048 68.2813 4.13532 68.8741 4.04071 69.5077C3.9461 70.1413 4.03605 70.7887 4.29981 71.3725C4.56356 71.9562 4.98994 72.4516 5.52791 72.7994C6.06589 73.1471 6.69268 73.3325 7.33327 73.3333H39.9999Z" fill="#ABABAB"/>
</svg>
