<svg width="80" height="80" viewBox="0 0 80 80" fill="none" xmlns="http://www.w3.org/2000/svg">
<g clip-path="url(#clip0_19_1871)">
<path fill-rule="evenodd" clip-rule="evenodd" d="M76.6667 41.2667C76.6 42.5334 75.1666 43.2001 74.0667 42.6001C70.8459 40.9261 67.2778 40.03 63.6483 39.9837C60.0189 39.9374 56.429 40.7421 53.1667 42.3334C52.9359 42.4363 52.686 42.4895 52.4333 42.4895C52.1806 42.4895 51.9308 42.4363 51.7 42.3334C45.1102 39.5217 37.7299 39.1698 30.9024 41.3416C24.075 43.5134 18.2543 48.0646 14.5 54.1667C14.1667 54.6667 14.1667 55.3334 14.5 55.8334C15.7333 57.7667 17.1667 59.6001 18.7667 61.2001C19.5667 62.0001 20.9 61.7001 21.4333 60.7001C22.0667 59.4334 22.7333 58.2667 23.3667 57.3001C23.8333 56.6001 24.8 56.9667 24.7 57.8001L24.0667 64.3334C24 64.9667 24.3 65.5667 24.8333 65.9001C29.4324 68.5958 34.6691 70.0114 40 70.0001C40.2787 69.9989 40.5508 70.085 40.778 70.2465C41.0052 70.4079 41.1761 70.6365 41.2667 70.9001C41.6 72.0001 42.1 73.0667 42.6 74.0667C43.2 75.2001 42.5333 76.6001 41.2667 76.6334L40 76.6667C32.695 76.6624 25.5578 74.4761 19.5036 70.3883C13.4494 66.3005 8.75428 60.4975 6.0202 53.7234C3.28613 46.9494 2.63778 39.513 4.15829 32.368C5.67881 25.223 9.29887 18.695 14.5543 13.6212C19.8097 8.54734 26.4608 5.15892 33.6549 3.89043C40.8489 2.62195 48.2578 3.53122 54.9316 6.50166C61.6054 9.47209 67.2399 14.3683 71.1124 20.5624C74.9849 26.7565 76.919 33.9661 76.6667 41.2667ZM51.6667 25.0001C51.6667 26.5321 51.3649 28.0492 50.7786 29.4647C50.1923 30.8802 49.3329 32.1663 48.2496 33.2496C47.1662 34.333 45.8801 35.1923 44.4646 35.7787C43.0492 36.365 41.5321 36.6667 40 36.6667C38.4679 36.6667 36.9508 36.365 35.5354 35.7787C34.1199 35.1923 32.8338 34.333 31.7504 33.2496C30.6671 32.1663 29.8077 30.8802 29.2214 29.4647C28.6351 28.0492 28.3333 26.5321 28.3333 25.0001C28.3333 21.9059 29.5625 18.9384 31.7504 16.7505C33.9383 14.5626 36.9058 13.3334 40 13.3334C43.0942 13.3334 46.0616 14.5626 48.2496 16.7505C50.4375 18.9384 51.6667 21.9059 51.6667 25.0001Z" fill="#ABABAB"/>
<path d="M80 63.3333C80 67.7536 78.244 71.9928 75.1184 75.1184C71.9928 78.244 67.7536 80 63.3333 80C58.913 80 54.6738 78.244 51.5482 75.1184C48.4226 71.9928 46.6667 67.7536 46.6667 63.3333C46.6667 58.913 48.4226 54.6738 51.5482 51.5482C54.6738 48.4226 58.913 46.6666 63.3333 46.6666C67.7536 46.6666 71.9928 48.4226 75.1184 51.5482C78.244 54.6738 80 58.913 80 63.3333Z" fill="#ABABAB"/>
</g>
<defs>
<clipPath id="clip0_19_1871">
<rect width="80" height="80" fill="white"/>
</clipPath>
</defs>
</svg>
